<?xml version="1.0" encoding="UTF-8"?>
<!DOCTYPE svg PUBLIC "-//W3C//DTD SVG 1.1//EN" "http://www.w3.org/Graphics/SVG/1.1/DTD/svg11.dtd">
<!-- Creator: CorelDRAW X8 -->
<svg xmlns="http://www.w3.org/2000/svg" xml:space="preserve" width="15.4698mm" height="20.0001mm" version="1.1" style="shape-rendering:geometricPrecision; text-rendering:geometricPrecision; image-rendering:optimizeQuality; fill-rule:evenodd; clip-rule:evenodd"
viewBox="0 0 199 257"
 xmlns:xlink="http://www.w3.org/1999/xlink">
 <defs>
  <style type="text/css">
   <![CDATA[
    .fil0 {fill:#FEFEFE}
   ]]>
  </style>
 </defs>
 <g id="Слой_x0020_1">
  <metadata id="CorelCorpID_0Corel-Layer"/>
  <path class="fil0" d="M100 29c9,0 19,1 28,4l-13 -22c-2,-4 -1,-8 3,-10l0 0c3,-2 7,-1 9,3l23 39c0,0 0,1 1,1l0 0 0 0 0 0c1,4 -1,8 -5,9l-42 15c-4,2 -8,0 -9,-4l0 0c-2,-3 0,-7 4,-9l25 -9c-8,-2 -16,-3 -24,-3 -48,0 -86,38 -86,85 0,17 5,32 13,45l-10 10c-11,-16 -17,-35 -17,-55 0,-55 45,-99 100,-99zm-1 199c-10,0 -19,-1 -28,-4l12 22c2,4 1,8 -2,10l0 0c-3,2 -8,1 -10,-3l-22 -39c-1,0 -1,-1 -1,-1l0 0 0 0 0 0c-1,-4 1,-8 4,-9l43 -16c3,-1 8,1 9,5l0 0c1,3 -1,7 -4,9l-25 9c8,2 16,3 24,3 47,0 86,-38 86,-85 0,-17 -5,-32 -13,-45l10 -10c11,15 17,34 17,55 0,55 -45,99 -100,99z"/>
 </g>
</svg>
