<?xml version="1.0" encoding="UTF-8"?>
<!DOCTYPE svg PUBLIC "-//W3C//DTD SVG 1.1//EN" "http://www.w3.org/Graphics/SVG/1.1/DTD/svg11.dtd">
<!-- Creator: CorelDRAW 2020 (64-Bit) -->
<svg xmlns="http://www.w3.org/2000/svg" xml:space="preserve" width="0.256854in" height="0.21526in" version="1.1" style="shape-rendering:geometricPrecision; text-rendering:geometricPrecision; image-rendering:optimizeQuality; fill-rule:evenodd; clip-rule:evenodd"
viewBox="0 0 71.61 60.01"
 xmlns:xlink="http://www.w3.org/1999/xlink"
 xmlns:xodm="http://www.corel.com/coreldraw/odm/2003">
 <defs>
  <style type="text/css">
   <![CDATA[
    .str0 {stroke:#FEFEFE;stroke-width:1.93;stroke-miterlimit:2.61313}
    .fil0 {fill:#2B2A29}
   ]]>
  </style>
 </defs>
 <g id="Слой_x0020_1">
  <metadata id="CorelCorpID_0Corel-Layer"/>
  <g id="_2458298215104">
   <g id="_1693148872224">
    <path class="fil0 str0" d="M70.64 38.41l0 -16.83 -8.72 8.41 8.72 8.41 0 0 0 0zm-69.68 -16.83l0 16.83 8.72 -8.41 -8.72 -8.41 0 0 0 -0zm43.25 -20.61l-16.8 0 8.41 8.72 8.41 -8.72 0 0 -0.02 0zm-16.8 58.08l16.83 0 -8.41 -8.72 -8.41 8.72 0 0 -0 0zm-11.92 -43.55l0 29.03 40.65 0 0 -29.03 -40.65 0z"/>
   </g>
  </g>
 </g>
</svg>
